<svg xmlns="http://www.w3.org/2000/svg" version="1.1" id="svg7" viewBox="0 0 313.163 268.251">
  <g id="g4491" transform="translate(126.508 -12.45)" fill-opacity="1">
        <path
            transform="translate(-151.508 14.862)"
            fill="black"
            d="M240.923 9.176l35.664-11.588 3.863 11.888-35.664 11.589zm25.407 37.743l11.888-3.863 11.588 35.664-11.889 3.863zm41.145-35.977l-5.7 11.181A56.196 56.196 0 00243.07 34.01a56.194 56.194 0 00-14.64 58.078h-.004c11.955 36.863 56.736 50.872 87.568 27.395 30.832-23.478 29.237-70.373-3.12-91.702l5.7-11.181a69.027 69.027 0 00-11.1-5.658zM281.863 36.6c20.912-.001 37.865 17.021 37.866 38.02 0 20.997-16.954 38.02-37.866 38.019-20.911 0-37.863-17.022-37.863-38.02 0-20.997 16.952-38.019 37.863-38.02zM88.548 101.588l40.148 1.2-2.372-25.253L83.7 75.046zm51.9 1.555l38.378 1.151V80.609l-40.719-2.381zm-45.71 32.264l37.079.582L129.8 114.5l-39.1-1.17zm48.814.767l35.274.554v-20.756l-37.277-1.118zM101 169.631h33.978l-2.063-21.955-36.036-.566zm45.7 0h32.13V148.4l-34.176-.536zm43.8 0h34.35l2.507-20.471-36.857-.579zm46.1 0h23.588c7.714 0 11.765-8.455 12.675-11.713l1.469-8.022-35.248-.553zM91.024 235.524c0 11.263 13.616 16.901 21.58 8.938 7.962-7.963 2.324-21.579-8.939-21.579-6.978.009-12.632 5.663-12.641 12.641zm135.128 0c0 11.263 13.616 16.901 21.58 8.938 7.962-7.963 2.324-21.579-8.939-21.579-6.977.01-12.631 5.664-12.641 12.641zm-17.5 0a29.77 29.77 0 012.873-12.641h-80.593a29.776 29.776 0 012.873 12.641c.096 16.714-13.426 30.315-30.14 30.315-16.715 0-30.237-13.601-30.141-30.315a29.667 29.667 0 014.691-16.03 30.58 30.58 0 0112.134-10.871L59.542 40.268H33.75a8.75 8.75 0 110-17.5h33.086c.17.007.338.038.5.092.125.04.254.069.384.086a7.94 7.94 0 013.223.982c.515.275 1 .602 1.448.976a8.345 8.345 0 012.7 4.154c.043.131.097.259.162.381.088.16.153.33.193.507l5.011 27.386 133.594 7.807a67.634 67.634 0 00-.767 17.48L190.5 81.291v23.354l28.977.868a67.01 67.01 0 007.251 11.893l-36.228-1.085v20.589l38.281.6 1.886-15.4a67.377 67.377 0 0010.6 9.348l-.764 6.239 11.979.188A66.533 66.533 0 00280 143.768a67.647 67.647 0 0013.463-1.35l-3.549 19.357c-3.414 12.621-13.93 25.356-29.731 25.356H104.206l3.34 18.252h131.247a30.143 30.143 0 11-30.141 30.141z"
        />
    </g>
</svg>
